<?xml version="1.0" encoding="UTF-8"?>
<svg id="Layer_2" data-name="Layer 2" xmlns="http://www.w3.org/2000/svg" viewBox="0 0 93.8 62">
  <defs>
    <style>
      .cls-1 {
        opacity: .45;
      }

      .cls-1, .cls-2, .cls-3, .cls-4, .cls-5, .cls-6, .cls-7, .cls-8, .cls-9, .cls-10, .cls-11, .cls-12 {
        isolation: isolate;
      }

      .cls-1, .cls-8 {
        fill: #f5f5f5;
      }

      .cls-13, .cls-2, .cls-4, .cls-6, .cls-11 {
        fill: #fff;
      }

      .cls-14, .cls-3 {
        fill: #7151a9;
      }

      .cls-2, .cls-15 {
        opacity: .3;
      }

      .cls-3, .cls-4, .cls-8, .cls-12 {
        opacity: .5;
      }

      .cls-5 {
        opacity: .15;
      }

      .cls-6 {
        opacity: .4;
      }

      .cls-7 {
        opacity: .35;
      }

      .cls-9, .cls-11 {
        opacity: .2;
      }

      .cls-10 {
        opacity: .1;
      }
    </style>
  </defs>
  <g id="Layer_23" data-name="Layer 23">
    <g id="Layer_24" data-name="Layer 24">
      <g>
        <path class="cls-14" d="M2.48,26.67c2.16-3.73,5.77-7.2,10.83-10.21,17.66-10.42,46.4-10.42,64.1,0,5.05,2.98,8.66,6.48,10.83,10.21h2.45v9.44c-.33,6.56-4.73,13.06-13.25,18.08-17.66,10.42-46.4,10.42-64.1,0C4.82,49.17,.38,42.67,.09,36.1v-9.43H2.48Z"/>
        <path class="cls-3" d="M20.58,12.98c-2.52,.96-4.96,2.12-7.29,3.48-5.06,2.98-8.66,6.48-10.83,10.21H0v9.44c.33,6.57,4.77,13.07,13.25,18.08,2.34,1.36,4.78,2.52,7.29,3.48l.04-44.7Z"/>
        <path class="cls-14" d="M77.41,7.81c17.66,10.42,17.66,27.31,0,37.73-15.49,9.11-39.4,10.25-56.99,3.41l-.71-.28c-2.21-.88-4.35-1.93-6.4-3.13C-1.46,36.85-3.91,23.66,5.95,13.48c2.19-2.21,4.66-4.12,7.35-5.66,17.71-10.42,46.41-10.42,64.11,0Z"/>
        <path class="cls-8" d="M5.95,13.48c-.19,.22-6.39,6.88-4.74,16.46,1.57,9.16,14.13,16.88,18.5,18.73-2.21-.88-4.35-1.93-6.4-3.13C-1.46,36.85-3.91,23.66,5.95,13.48Z"/>
        <path class="cls-8" d="M84.76,39.87c.19-.22,6.38-6.88,4.73-16.45-1.56-9.16-14.13-16.89-18.55-18.74,2.21,.89,4.35,1.94,6.41,3.14,14.8,8.69,17.26,21.87,7.4,32.05Z"/>
        <path class="cls-14" d="M45.37,51.43c23.27,0,42.14-11.1,42.14-24.8S68.64,1.83,45.37,1.83,3.24,12.94,3.24,26.63s18.86,24.8,42.13,24.8Z"/>
        <path class="cls-4" d="M83.59,28.81c2.91-.33,4.36-3.39,3.22-6.82-1.14-3.43-4.42-5.96-7.32-5.63-2.9,.33-4.36,3.39-3.23,6.82,1.13,3.43,4.42,5.96,7.33,5.63Z"/>
        <path class="cls-14" d="M52.87,44.57c-.95-7.36-32.48-27.7-32.48-27.7,0,0-6.99-2.86-4.67-7.84-1.16,.68-2.28,1.42-3.36,2.22-.71,.51-1.39,1.06-2.05,1.65C.92,21.19,.91,32.07,10.31,40.36c.64,.57,1.32,1.12,2.05,1.66,1,.75,2.05,1.44,3.13,2.07,1.07,.64,2.18,1.23,3.34,1.8,.88,.44,1.87,.86,2.83,1.24,.96,.39,1.95,.76,2.96,1.09,3.07,1.01,6.22,1.79,9.4,2.31,.7,.11,1.41,.22,2.11,.31,6.95,.91,13.99,.79,20.91-.36,0,0-5.07-1.09-4.17-5.9Z"/>
        <path class="cls-14" d="M23.17,13.57c-11.76,6.92-12.24,17.96-1.44,25.21,.46,.31,.94,.61,1.44,.9,12.26,7.2,32.13,7.2,44.39,0,12.26-7.2,12.27-18.9,0-26.1-.5-.3-1.02-.58-1.55-.85-12.32-6.36-31.09-6.08-42.84,.85Z"/>
        <path class="cls-14" d="M45.38,44.29c16.57,0,30.01-7.91,30.01-17.66s-13.44-17.66-30.01-17.66S15.37,16.88,15.37,26.63s13.44,17.66,30.01,17.66Z"/>
        <path class="cls-14" d="M24.15,19.07c11.72-6.9,30.71-6.9,42.43,0,4.8,2.83,7.62,6.35,8.5,10.03-.88,3.66-3.7,7.2-8.5,10.02-11.72,6.9-30.71,6.9-42.43,0-4.79-2.82-7.62-6.36-8.49-10.02,.86-3.67,3.7-7.21,8.49-10.03Z"/>
        <path class="cls-14" d="M49.09,22.89c-1.57,.41-3.07,.9-4.42,1.4-1.56,.59-3.15,1.1-4.76,1.5-.74,.18-1.51,.25-2.27,.22-.77-.04-1.52-.27-2.18-.67-1.48-.9-1.7-2.14,.46-3.6,.15-.11,.31-.21,.47-.3,.4-.24,.82-.46,1.25-.64,1.05-.47,2.18-.73,3.32-.76,1.15-.03,2.29,.18,3.35,.6l3.84-3.96c-3.39-1.18-7.05-1.31-10.52-.39-1.14,.3-2.26,.69-3.34,1.18l-3.85-2.26-4.59,2.7,3.81,2.24c-3.86,2.99-3.94,6.09,.4,8.64,1.93,1.15,4.11,1.79,6.34,1.86h1.26c2.33-.18,4.62-.68,6.81-1.49,4.42-1.5,7.95-3.28,10.94-1.53,1.99,1.17,1.44,2.65-.74,3.93-.34,.21-.7,.39-1.07,.55-1.21,.53-2.51,.8-3.82,.81-1.31,0-2.62-.25-3.83-.76l-4.03,4.12c2.39,.92,4.93,1.33,7.49,1.22,2.55-.11,5.05-.75,7.35-1.88l3.8,2.23,4.59-2.7-3.8-2.23c3.82-3.02,4.26-6.3-.2-8.96l-.08-.04c-4.12-2.31-8.28-2-11.99-1.05Z"/>
        <g>
          <path class="cls-5" d="M2.48,26.67c2.16-3.73,5.77-7.2,10.83-10.21,17.66-10.42,46.4-10.42,64.1,0,5.05,2.98,8.66,6.48,10.83,10.21h2.45v9.44c-.33,6.56-4.73,13.06-13.25,18.08-17.66,10.42-46.4,10.42-64.1,0C4.82,49.17,.38,42.67,.09,36.1v-9.43H2.48Z"/>
          <path class="cls-10" d="M45.36,8.65c11.6,0,23.2,2.6,32.05,7.81,5.05,2.98,8.66,6.48,10.83,10.21h2.45v9.44c-.33,6.56-4.73,13.06-13.25,18.08-8.83,5.2-20.45,7.81-32.05,7.81l-.03-53.35Z"/>
          <path class="cls-10" d="M70.11,12.98c2.52,.96,4.96,2.12,7.3,3.48,5.05,2.98,8.66,6.48,10.83,10.21h2.45v9.44c-.33,6.56-4.73,13.06-13.25,18.08-2.34,1.36-4.78,2.52-7.3,3.48l-.03-44.69Z"/>
          <path class="cls-9" d="M77.41,7.81c17.66,10.42,17.66,27.31,0,37.73-15.49,9.11-39.4,10.25-56.99,3.41l-.71-.28c-2.21-.88-4.35-1.93-6.4-3.13C-1.46,36.85-3.91,23.66,5.95,13.48c2.19-2.21,4.66-4.12,7.35-5.66,17.71-10.42,46.41-10.42,64.11,0Z"/>
          <path class="cls-6" d="M45.37,51.43c23.27,0,42.14-11.1,42.14-24.8S68.64,1.83,45.37,1.83,3.24,12.94,3.24,26.63s18.86,24.8,42.13,24.8Z"/>
          <path class="cls-11" d="M85.59,34.08c3.38-6.38,2.28-13.41-3.31-19.38-1.09-1.16-2.27-2.23-3.53-3.19-1.1-.83-2.23-1.59-3.41-2.29-.67-.4-1.36-.78-2.08-1.14,1.77,2.93,1.11,6.08-8.83,6.67-19.43,1.16,5.18,20.07,5.18,20.07,0,0,12.5-6.19,15.98-.74Z"/>
          <path class="cls-2" d="M52.87,44.57c-.95-7.36-32.48-27.7-32.48-27.7,0,0-6.99-2.86-4.67-7.84-1.16,.68-2.28,1.42-3.36,2.22-.71,.51-1.39,1.06-2.05,1.65C.92,21.19,.91,32.07,10.31,40.36c.64,.57,1.32,1.12,2.05,1.66,1,.75,2.05,1.44,3.13,2.07,1.07,.64,2.18,1.23,3.34,1.8,.88,.44,1.87,.86,2.83,1.24,.96,.39,1.95,.76,2.96,1.09,3.07,1.01,6.22,1.79,9.4,2.31,.7,.11,1.41,.22,2.11,.31,6.95,.91,13.99,.79,20.91-.36,0,0-5.07-1.09-4.17-5.9Z"/>
          <path class="cls-9" d="M23.17,13.57c-11.76,6.92-12.24,17.96-1.44,25.21,.46,.31,.94,.61,1.44,.9,12.26,7.2,32.13,7.2,44.39,0,12.26-7.2,12.27-18.9,0-26.1-.5-.3-1.02-.58-1.55-.85-12.32-6.36-31.09-6.08-42.84,.85Z"/>
          <path class="cls-12" d="M45.38,44.29c16.57,0,30.01-7.91,30.01-17.66s-13.44-17.66-30.01-17.66S15.37,16.88,15.37,26.63s13.44,17.66,30.01,17.66Z"/>
          <path class="cls-7" d="M24.15,19.07c11.72-6.9,30.71-6.9,42.43,0,4.8,2.83,7.62,6.35,8.5,10.03-.88,3.66-3.7,7.2-8.5,10.02-11.72,6.9-30.71,6.9-42.43,0-4.79-2.82-7.62-6.36-8.49-10.02,.86-3.67,3.7-7.21,8.49-10.03Z"/>
          <path class="cls-14" d="M64.26,31.95v-3.65c0-1.5-1.02-2.95-3.2-4.26l-.08-.04c-4.03-2.38-8.19-2.06-11.89-1.12-1.57,.4-3.07,.9-4.42,1.4-1.56,.59-3.15,1.09-4.76,1.5-.74,.18-1.51,.25-2.27,.22-.65-.03-1.29-.21-1.87-.5l.15-.11c.14-.1,.3-.2,.47-.3,.4-.24,.82-.46,1.25-.64,1.05-.47,2.18-.73,3.32-.75,1.14-.03,2.29,.18,3.35,.6l3.84-3.95v-3.6c-3.39-1.18-7.05-1.31-10.52-.39-1.14,.3-2.26,.69-3.34,1.18l-3.85-2.26-4.59,2.7v3.6l1.57,.9c-.43,.62-.66,1.36-.67,2.12v3.6c0,1.5,1.06,2.94,3.27,4.24,1.93,1.15,4.11,1.79,6.34,1.86h1.26c2.33-.17,4.62-.67,6.81-1.49l1.32-.47-3.87,3.96v3.6c2.39,.92,4.93,1.33,7.48,1.22,2.55-.11,5.05-.75,7.35-1.88l3.8,2.24,4.59-2.7v-3.6l-1.58-.9c.46-.69,.71-1.51,.71-2.34Zm-9.71-.32c-.34,.21-.7,.39-1.07,.55-2.39,1.04-5.09,1.08-7.51,.11,3.6-1.29,6.6-2.42,9.16-1.04-.11,.12-.33,.25-.55,.38h-.04Z"/>
          <g class="cls-15">
            <path class="cls-13" d="M49.09,22.89c-1.57,.4-3.07,.9-4.42,1.4-1.56,.59-3.15,1.09-4.76,1.5-.74,.18-1.51,.25-2.27,.22-.77-.04-1.52-.27-2.18-.67-1.48-.9-1.7-2.14,.46-3.6,.15-.11,.31-.21,.47-.3,.4-.24,.82-.46,1.25-.64,1.05-.47,2.18-.73,3.32-.76,1.15-.03,2.29,.18,3.35,.6l3.84-3.96c-3.39-1.18-7.05-1.31-10.52-.39-1.14,.3-2.26,.69-3.34,1.18l-3.85-2.26-4.59,2.7,3.81,2.24c-3.86,2.99-3.94,6.09,.4,8.64,1.93,1.15,4.11,1.79,6.34,1.86h1.26c2.33-.18,4.62-.68,6.81-1.49,4.42-1.5,7.95-3.28,10.94-1.53,1.99,1.17,1.44,2.65-.74,3.92-.34,.21-.7,.39-1.07,.55-1.21,.53-2.51,.8-3.82,.81-1.31,0-2.62-.25-3.83-.76l-4.03,4.12c2.39,.92,4.93,1.33,7.49,1.22,2.55-.11,5.05-.75,7.35-1.88l3.8,2.23,4.59-2.7-3.8-2.23c3.82-3.02,4.26-6.3-.2-8.96l-.08-.04c-4.12-2.31-8.28-2-11.99-1.05Z"/>
          </g>
          <path class="cls-1" d="M25.8,17.97l4.64-2.14,3.81,1.7-3.85-2.26-4.59,2.7Z"/>
          <path class="cls-1" d="M37.05,16.51c3.27-.67,6.65-.56,9.86,.33l-2.65,3.86,3.84-3.95c-3.57-1.24-7.43-1.33-11.06-.24Z"/>
          <path class="cls-1" d="M60.99,24l.08,.04c4.42,2.7,4.02,5.94,.2,8.96,3.38-3.76,2.77-6.38-.88-8.54s-8.36-2.13-11.27-1.57c3.68-.95,7.84-1.26,11.87,1.12Z"/>
          <path class="cls-1" d="M61.27,33.01l2.92,2.28-3.71,2.66,4.59-2.7-3.8-2.23Z"/>
          <path class="cls-1" d="M53.52,32.19c-2.27,1.16-4.88,1.4-7.31,.65l-4.36,3.53,4.03-4.12c1.21,.51,2.52,.77,3.83,.76,1.31-.01,2.61-.29,3.82-.81Z"/>
          <path class="cls-1" d="M39.85,25.81c-1.77,.69-4.24,.58-5.5-.53-1.26-1.11-.48-2.41,1.51-3.49-2.15,1.43-1.93,2.7-.46,3.6,.66,.4,1.41,.62,2.18,.67,.76,.02,1.53-.06,2.27-.24Z"/>
          <path class="cls-1" d="M29.57,20.24c-.33,.29-3.09,2.92-1.87,5.54,1.3,2.8,5.34,4.59,8.62,4.96-2.23-.08-4.41-.72-6.34-1.86-4.35-2.56-4.26-5.61-.41-8.64Z"/>
          <path class="cls-13" d="M84.5,17.65l9.3,3.29-9.85-.78-4.37,16.33,2.91-16.65-9.3-3.29,9.85,.78L87.41,1l-2.91,16.65Z"/>
        </g>
      </g>
    </g>
  </g>
</svg>