<svg xmlns="http://www.w3.org/2000/svg" version="1.1" xmlns:xlink="http://www.w3.org/1999/xlink" xmlns:svgjs="http://svgjs.com/svgjs" width="1000" height="1000"><rect width="1000" height="1000" rx="200" ry="200" fill="#ffffff"></rect><g transform="matrix(15.214910612400153,0,0,15.214910612400153,100.5570662867741,115.42510778652053)"><svg xmlns="http://www.w3.org/2000/svg" version="1.1" xmlns:xlink="http://www.w3.org/1999/xlink" xmlns:svgjs="http://svgjs.com/svgjs" width="52.58" height="50.52"><svg xmlns="http://www.w3.org/2000/svg" viewBox="0 0 52.58 50.52"><defs><style>.cls-1{fill:#573e80;}</style></defs><g id="Layer_2" data-name="Layer 2"><g id="Layer_1-2" data-name="Layer 1"><path class="cls-1" d="M8.67,8.51c.62-.7,1.29-1.36,2-2a.57.57,0,0,0,.19-.7,3,3,0,0,1,1.23-3.55,3,3,0,0,1,3.75.22.49.49,0,0,0,.63.08A24.49,24.49,0,0,1,27.72,0,24.52,24.52,0,0,1,38.17,2.39a.57.57,0,0,0,.73,0,3,3,0,0,1,3.54-.17,3.09,3.09,0,0,1,1.38,3.38.55.55,0,0,0,.22.69,1.55,1.55,0,0,1,.27.24,2,2,0,0,0,2.26.77,2.66,2.66,0,0,1,2.8,1.42,2.88,2.88,0,0,1,0,3.24.84.84,0,0,0,0,1,24.36,24.36,0,0,1,3.08,10.11,3.58,3.58,0,0,0,.09.45v3.59c-.13.91-.24,1.83-.4,2.73a25,25,0,0,1-7.68,14,.64.64,0,0,0-.24.78,3.1,3.1,0,0,1-4.88,3.33.59.59,0,0,0-.72-.07,24.83,24.83,0,0,1-22.43,0,.59.59,0,0,0-.68.06,3,3,0,0,1-3.51,0,3,3,0,0,1-1.27-3.31.61.61,0,0,0-.21-.67A25.06,25.06,0,0,1,2.74,29.67a38.88,38.88,0,0,1-.39-4.18A.54.54,0,0,0,2,24.93,3,3,0,0,1,0,21.61,3,3,0,0,1,2.63,19c.45-.07.57-.29.67-.66A24.33,24.33,0,0,1,6,12m1.34.81A23.06,23.06,0,0,0,4.89,18.4l-.22.8c.39.42.73.81,1.09,1.16a.53.53,0,0,0,.44.11,50.86,50.86,0,0,1,9-1,.78.78,0,0,0,.51-.3,3.12,3.12,0,0,1,3.16-1.45.63.63,0,0,0,.69-.28,33.8,33.8,0,0,1,4.86-5.28.53.53,0,0,0,.18-.64c-.14-.61-.17-1.23-.27-2a33.62,33.62,0,0,0-7.7-3.31,3.18,3.18,0,0,1-4.67,1.12c-.71.74-1.42,1.48-2.14,2.21m7.65,14.28-.19.38a33.61,33.61,0,0,0-3,10.47,33.14,33.14,0,0,0-.1,7.11c0,.16.14.4.26.42a3.42,3.42,0,0,1,2.07,1.41l.26-.1a45.59,45.59,0,0,0,8.45-4.13A46.7,46.7,0,0,0,36.91,29a.55.55,0,0,0,.07-.59,6.74,6.74,0,0,1-.39-1.81.77.77,0,0,0-.5-.8,46.69,46.69,0,0,0-11.72-3.9c-1-.19-1.94-.32-2.9-.47C20.68,23.44,19.48,24.16,17.43,23.85ZM42.52,38.37c0,1.09,0,2.19-.12,3.28-.07.65,0,1.08.81,1.23a23.8,23.8,0,0,0,5.59-7.53c.15-.31,0-.43-.18-.6a49.27,49.27,0,0,0-6.31-5.31c-.39-.28-.67-.36-1,.09,0,0,0,.1,0,.17.26,1.27.53,2.54.77,3.81m-1.55.15A26.73,26.73,0,0,0,39.87,30c-.26,0-.42,0-.57,0a1.93,1.93,0,0,1-.5-.11c-.36-.2-.56-.06-.8.24A47.42,47.42,0,0,1,18,44.67c-.75.29-1.31.57-1.25,1.47a.82.82,0,0,1,0,.21l.51.26a23.42,23.42,0,0,0,20.5,0,.67.67,0,0,0,.43-.82,3.11,3.11,0,0,1,2.16-3.28l.48-.17c0-1.32.1-2.63.14-4M15,21,6.25,22a3.16,3.16,0,0,1-2.41,3.1,26.15,26.15,0,0,0,7.89,17.84c.87-.57.86-.57.8-1.35a34.26,34.26,0,0,1,.7-10.44,35.46,35.46,0,0,1,2.68-7.76.72.72,0,0,0,.07-.51C15.71,22.3,15.4,21.73,15,21ZM40.51,23.8a45.82,45.82,0,0,0,4.62-10.43c0-.12-.09-.36-.21-.46a3,3,0,0,1-1.25-2.62,13.4,13.4,0,0,1,.41-1.86L42.81,7.25a3.16,3.16,0,0,1-2.61.64A3.2,3.2,0,0,1,38,6.34a32.52,32.52,0,0,0-7.25,3.14c-.14.08-.21.34-.24.52a9.89,9.89,0,0,1-.15,1.46.68.68,0,0,0,.24.82A34.66,34.66,0,0,1,38.8,23c.27.53.52.87,1.16.75A2,2,0,0,1,40.51,23.8Zm7.37-10.49a3.43,3.43,0,0,1-.54.12c-.5,0-.69.26-.81.71-.24.8-.51,1.59-.8,2.37a48.17,48.17,0,0,1-3.65,7.72c-.08.14-.15.43-.08.52a3.31,3.31,0,0,1,.68,2.89l7,5.73A24.12,24.12,0,0,0,47.88,13.31ZM20.61,18.6a4.77,4.77,0,0,1,.53.86c.13.33.35.39.65.45,1.93.35,3.88.65,5.78,1.1A44.45,44.45,0,0,1,37,24.5a.69.69,0,0,0,.53,0c.08,0,.11-.34.05-.46a33.42,33.42,0,0,0-8.12-10.71.65.65,0,0,0-.56-.07,2.46,2.46,0,0,1-2.17.23c-1-.58-1.58,0-2.17.63l-.12.11A33.94,33.94,0,0,0,20.61,18.6ZM37.71,3.9l-.5-.24a23.62,23.62,0,0,0-20,.26.63.63,0,0,0-.31.46.69.69,0,0,0,.39.43c1,.39,2.11.68,3.12,1.12,1.64.71,3.24,1.5,4.89,2.28A3.11,3.11,0,0,1,29.36,8c.3.25.49.2.79,0a32.64,32.64,0,0,1,6.68-2.95C37.41,4.91,37.91,4.75,37.71,3.9Zm10.58,6.47a1.55,1.55,0,1,0-1.55,1.55A1.53,1.53,0,0,0,48.29,10.37ZM4.65,22a1.52,1.52,0,0,0-1.56-1.55,1.56,1.56,0,0,0-1.54,1.58,1.6,1.6,0,0,0,1.58,1.56A1.53,1.53,0,0,0,4.65,22ZM42.34,4.82a1.53,1.53,0,0,0-1.55-1.55,1.58,1.58,0,0,0-1.56,1.57A1.53,1.53,0,0,0,40.8,6.38,1.49,1.49,0,0,0,42.34,4.82Zm-1.14,22a1.55,1.55,0,0,0-1.55-1.58,1.58,1.58,0,0,0,0,3.16A1.55,1.55,0,0,0,41.2,26.83Zm-25.87-22a1.55,1.55,0,1,0-3.1,0A1.56,1.56,0,0,0,13.79,6.4,1.53,1.53,0,0,0,15.33,4.83ZM41.28,47a1.56,1.56,0,0,0,1.56-1.56,1.51,1.51,0,0,0-1.56-1.55,1.49,1.49,0,0,0-1.54,1.55A1.53,1.53,0,0,0,41.28,47ZM18.38,19.27a1.56,1.56,0,1,0-.05,3.11,1.56,1.56,0,1,0,.05-3.11Zm-3,26.08a1.55,1.55,0,1,0-1.57,1.56A1.57,1.57,0,0,0,15.33,45.35ZM29,10.48a1.52,1.52,0,0,0-1.54-1.57,1.59,1.59,0,0,0-1.56,1.57A1.57,1.57,0,0,0,27.47,12,1.49,1.49,0,0,0,29,10.48Z"></path></g></g></svg></svg></g></svg>