<svg width="2181" height="93" viewBox="0 0 2181 93" fill="none" xmlns="http://www.w3.org/2000/svg">
<mask id="mask0_1623_151" style="mask-type:alpha" maskUnits="userSpaceOnUse" x="0" y="0" width="2181" height="93">
<rect width="2181" height="93" fill="#D9D9D9"/>
</mask>
<g mask="url(#mask0_1623_151)">
<path d="M0 15.4203L52.1017 22.9159C104.203 30.3073 208.407 45.2985 312.125 45.0903C416.086 44.8821 519.32 29.6827 623.281 30.3073C727 31.0361 831.203 47.6929 934.922 44.2574C1038.88 40.7179 1142.12 17.1901 1246.08 6.77959C1349.8 -3.63092 1454 -0.924189 1557.72 7.30012C1661.68 15.4203 1764.91 28.954 1868.87 39.885C1972.59 50.816 2076.8 59.1445 2128.9 63.3087L2181 67.4729V233H2128.9C2076.8 233 1972.59 233 1868.87 233C1764.91 233 1661.68 233 1557.72 233C1454 233 1349.8 233 1246.08 233C1142.12 233 1038.88 233 934.922 233C831.203 233 727 233 623.281 233C519.32 233 416.086 233 312.125 233C208.407 233 104.203 233 52.1017 233H0V15.4203Z" fill="#654A90"/>
</g>
</svg>
