<svg width="2581" height="633" viewBox="0 0 2581 633" fill="none" xmlns="http://www.w3.org/2000/svg">
<g filter="url(#filter0_d_1612_148)">
<path d="M200 211.42L252.102 218.916C304.203 226.307 408.407 241.298 512.125 241.09C616.086 240.882 719.32 225.683 823.281 226.307C927 227.036 1031.2 243.693 1134.92 240.257C1238.88 236.718 1342.12 213.19 1446.08 202.78C1549.8 192.369 1654 195.076 1757.72 203.3C1861.68 211.42 1964.91 224.954 2068.87 235.885C2172.59 246.816 2276.8 255.144 2328.9 259.309L2381 263.473V429H2328.9C2276.8 429 2172.59 429 2068.87 429C1964.91 429 1861.68 429 1757.72 429C1654 429 1549.8 429 1446.08 429C1342.12 429 1238.88 429 1134.92 429C1031.2 429 927 429 823.281 429C719.32 429 616.086 429 512.125 429C408.407 429 304.203 429 252.102 429H200V211.42Z" fill="#654A90"/>
</g>
<defs>
<filter id="filter0_d_1612_148" x="0" y="0" width="2581" height="633" filterUnits="userSpaceOnUse" color-interpolation-filters="sRGB">
<feFlood flood-opacity="0" result="BackgroundImageFix"/>
<feColorMatrix in="SourceAlpha" type="matrix" values="0 0 0 0 0 0 0 0 0 0 0 0 0 0 0 0 0 0 127 0" result="hardAlpha"/>
<feOffset dy="4"/>
<feGaussianBlur stdDeviation="100"/>
<feComposite in2="hardAlpha" operator="out"/>
<feColorMatrix type="matrix" values="0 0 0 0 0.443137 0 0 0 0 0.317647 0 0 0 0 0.662745 0 0 0 0.5 0"/>
<feBlend mode="normal" in2="BackgroundImageFix" result="effect1_dropShadow_1612_148"/>
<feBlend mode="normal" in="SourceGraphic" in2="effect1_dropShadow_1612_148" result="shape"/>
</filter>
</defs>
</svg>
