<svg width="2172" height="518" viewBox="0 0 2172 518" fill="none" xmlns="http://www.w3.org/2000/svg">
<path d="M30 34.282L82.1017 50.946C134.203 67.3786 238.407 100.706 342.125 100.244C446.086 99.7807 549.32 65.9898 653.281 67.3785C757 68.9986 861.203 106.03 964.922 98.3921C1068.88 90.523 1172.12 38.2166 1276.08 15.0722C1379.8 -8.07218 1484 -2.05463 1587.72 16.2294C1691.68 34.2821 1794.91 64.3698 1898.87 88.6714C2002.59 112.973 2106.8 131.489 2158.9 140.746L2211 150.004V518H2158.9C2106.8 518 2002.59 518 1898.87 518C1794.91 518 1691.68 518 1587.72 518C1484 518 1379.8 518 1276.08 518C1172.12 518 1068.88 518 964.922 518C861.203 518 757 518 653.281 518C549.32 518 446.086 518 342.125 518C238.407 518 134.203 518 82.1017 518H30V34.282Z" fill="#7151A9"/>
<path d="M46 176.928L87.4472 181.741C128.894 186.554 211.789 196.18 294.298 185.591C376.999 175.002 459.123 144.198 541.824 131.684C624.333 119.169 707.228 124.945 789.737 128.218C872.438 131.299 954.562 132.069 1037.26 154.402C1119.77 176.928 1202.67 221.209 1285.18 226.407C1367.88 231.413 1450 197.528 1532.7 176.35C1615.21 155.172 1698.11 146.701 1739.55 142.658L1781 138.422V510H1739.55C1698.11 510 1615.21 510 1532.7 510C1450 510 1367.88 510 1285.18 510C1202.67 510 1119.77 510 1037.26 510C954.562 510 872.438 510 789.737 510C707.228 510 624.333 510 541.824 510C459.123 510 376.999 510 294.298 510C211.789 510 128.894 510 87.4472 510H46V176.928Z" fill="#654A90"/>
<path d="M13 210.671L54.4472 217.012C95.8944 223.544 178.789 236.226 261.298 227.387C343.999 218.357 426.123 187.615 508.824 186.078C591.333 184.348 674.228 212.016 756.737 215.859C839.438 219.702 921.562 199.719 1004.26 194.34C1086.77 188.96 1169.67 197.798 1252.18 205.484C1334.88 213.169 1417 219.702 1499.7 228.348C1582.21 236.994 1665.11 247.754 1706.55 253.326L1748 258.706V447H1706.55C1665.11 447 1582.21 447 1499.7 447C1417 447 1334.88 447 1252.18 447C1169.67 447 1086.77 447 1004.26 447C921.562 447 839.438 447 756.737 447C674.228 447 591.333 447 508.824 447C426.123 447 343.999 447 261.298 447C178.789 447 95.8944 447 54.4472 447H13V210.671Z" fill="#594377"/>
<path d="M0.5 245.072L52.6017 243.86C104.703 242.649 208.907 240.225 312.625 239.498C416.586 238.529 519.82 239.498 623.781 242.164C727.5 245.072 831.703 249.919 935.422 255.492C1039.38 261.308 1142.62 267.609 1246.58 266.882C1350.3 266.155 1454.5 257.916 1558.22 257.916C1662.18 257.916 1765.41 266.155 1869.37 277.302C1973.09 288.692 2077.3 303.232 2129.4 310.502L2181.5 317.772V468.019H2129.4C2077.3 468.019 1973.09 468.019 1869.37 468.019C1765.41 468.019 1662.18 468.019 1558.22 468.019C1454.5 468.019 1350.3 468.019 1246.58 468.019C1142.62 468.019 1039.38 468.019 935.422 468.019C831.703 468.019 727.5 468.019 623.781 468.019C519.82 468.019 416.586 468.019 312.625 468.019C208.907 468.019 104.703 468.019 52.6017 468.019H0.5V245.072Z" fill="#4C3D60"/>
<path d="M0 244.387L52.1017 246.81C104.203 249.233 208.407 254.08 312.125 255.292C416.086 256.503 519.32 254.08 623.281 265.712C727 277.586 831.203 303.274 934.922 307.393C1038.88 311.513 1142.12 293.58 1246.08 281.464C1349.8 269.347 1454 263.046 1557.72 261.35C1661.68 259.654 1764.91 263.046 1868.87 257.715C1972.59 252.384 2076.8 238.813 2128.9 231.785L2181 225V409.173H2128.9C2076.8 409.173 1972.59 409.173 1868.87 409.173C1764.91 409.173 1661.68 409.173 1557.72 409.173C1454 409.173 1349.8 409.173 1246.08 409.173C1142.12 409.173 1038.88 409.173 934.922 409.173C831.203 409.173 727 409.173 623.281 409.173C519.32 409.173 416.086 409.173 312.125 409.173C208.407 409.173 104.203 409.173 52.1017 409.173H0V244.387Z" fill="#3F3649"/>
</svg>
