<svg width="260" height="36" viewBox="0 0 250 36" fill="none" xmlns="http://www.w3.org/2000/svg">
<g clip-path="url(#clip0_1230_140)">
<path d="M30.782 17.9593C30.782 27.9688 23.6193 35.1348 13.5295 35.1348H0V0.849609H13.5295C23.6513 0.849609 30.782 7.94442 30.782 17.9593ZM21.3652 17.9593C21.3652 12.8752 18.0643 9.50035 13.1183 9.50035H9.27251V26.4841H13.1183C18.0429 26.4841 21.3652 23.0106 21.3652 17.9593Z" fill="white"/>
<path d="M61.703 21.6573C61.6976 22.4643 61.6369 23.2698 61.5214 24.0679H42.3728C42.955 27.1031 44.8298 28.6755 47.6339 28.6755C49.7117 28.6755 51.4423 27.7386 52.2969 26.1936H61.1368C59.3207 32.2201 54.1076 36.0004 47.6339 36.0004C39.5899 36.0004 33.6504 29.9684 33.6504 21.9148C33.6504 13.8613 39.5258 7.81836 47.6339 7.81836C55.9504 7.81836 61.703 13.8996 61.703 21.6573ZM42.5277 19.0276H52.9539C52.1741 16.3814 50.3153 14.957 47.6126 14.957C45.0487 14.957 43.2648 16.3979 42.5277 19.0276Z" fill="white"/>
<path d="M78.5173 36.0001C70.2436 36.0001 64.2773 30.0558 64.2773 21.8707C64.2773 13.6857 70.1955 7.85645 78.5173 7.85645C85.7654 7.85645 91.1975 12.5461 92.1697 19.5807H83.5167C83.1479 18.5221 82.4644 17.609 81.5626 16.9701C80.6609 16.3312 79.5864 15.9987 78.4906 16.0196C75.3659 16.0196 73.1493 18.4521 73.1493 21.8981C73.1493 25.3442 75.398 27.837 78.4906 27.837C79.6244 27.8493 80.7311 27.4813 81.6423 26.789C82.5535 26.0967 83.2192 25.118 83.5381 24.0019H92.2658C91.2616 31.1789 85.7494 36.022 78.4906 36.022L78.5173 36.0001Z" fill="white"/>
<path d="M122.668 21.6573C122.665 22.4644 122.605 23.2701 122.487 24.0679H103.343C103.92 27.1031 105.8 28.6755 108.605 28.6755C110.677 28.6755 112.413 27.7386 113.267 26.1936H122.107C120.291 32.2201 115.073 36.0004 108.605 36.0004C100.561 36.0004 94.5996 29.9739 94.5996 21.8875C94.5996 13.801 100.512 7.81836 108.605 7.81836C116.916 7.81836 122.674 13.8996 122.674 21.6573H122.668ZM103.498 19.0276H113.919C113.145 16.3814 111.286 14.957 108.605 14.957C106.014 14.957 104.214 16.3979 103.498 19.0276Z" fill="white"/>
<path d="M156.073 1.64355V35.0083H148.659L135.738 16.9289V35.0303H127.059V1.64355H134.9L147.388 19.1751V1.64355H156.073Z" fill="#7151A9"/>
<path d="M164.763 12.9847C165.094 12.6012 165.452 12.2396 165.831 11.889C165.888 11.8458 165.928 11.7846 165.946 11.7151C165.965 11.6457 165.96 11.5719 165.933 11.5055C165.816 11.1502 165.817 10.7653 165.935 10.4105C166.053 10.0556 166.282 9.75062 166.586 9.54278C166.89 9.33493 167.253 9.23583 167.618 9.26085C167.982 9.28586 168.329 9.43358 168.604 9.68112C168.645 9.72814 168.702 9.75878 168.763 9.76777C168.825 9.77677 168.887 9.76356 168.94 9.73042C170.742 8.82472 172.72 8.34567 174.727 8.3286C176.734 8.31153 178.719 8.75689 180.536 9.63181C180.675 9.70303 180.771 9.74686 180.921 9.63181C181.186 9.41315 181.512 9.28679 181.852 9.27103C182.192 9.25527 182.528 9.35093 182.811 9.54415C183.11 9.73156 183.342 10.0116 183.474 10.3436C183.607 10.6756 183.633 11.0423 183.549 11.3904C183.52 11.4574 183.516 11.5326 183.538 11.6021C183.56 11.6716 183.605 11.7307 183.666 11.7685C183.72 11.8049 183.769 11.8492 183.81 11.9C183.94 12.0941 184.128 12.2399 184.346 12.3159C184.563 12.3919 184.799 12.394 185.017 12.3218C185.315 12.272 185.62 12.3205 185.889 12.4603C186.158 12.6002 186.376 12.8241 186.513 13.0998C186.688 13.3609 186.782 13.6704 186.782 13.9873C186.782 14.3042 186.688 14.6137 186.513 14.8748C186.455 14.9538 186.423 15.0499 186.423 15.1488C186.423 15.2476 186.455 15.3438 186.513 15.4227C187.449 17.1233 188.009 19.0143 188.153 20.9616C188.153 21.0438 188.19 21.1205 188.206 21.2027V23.175C188.137 23.6735 188.078 24.1721 187.987 24.6651C187.476 27.6139 186.035 30.3087 183.885 32.3352C183.82 32.3798 183.771 32.446 183.748 32.5228C183.725 32.5996 183.728 32.6823 183.757 32.7571C183.856 33.1015 183.846 33.4693 183.729 33.8076C183.611 34.146 183.392 34.4374 183.103 34.6401C182.814 34.8428 182.47 34.9464 182.12 34.9358C181.77 34.9253 181.433 34.8012 181.156 34.5814C181.104 34.5317 181.037 34.5014 180.966 34.4954C180.895 34.4895 180.825 34.5082 180.766 34.5486C178.906 35.506 176.853 36.0019 174.772 35.9962C172.691 35.9904 170.64 35.4833 168.785 34.5157C168.73 34.4793 168.664 34.4629 168.598 34.4688C168.532 34.4747 168.47 34.5028 168.422 34.5486C168.144 34.743 167.815 34.8465 167.478 34.8454C167.141 34.8443 166.813 34.7386 166.536 34.5423C166.259 34.346 166.047 34.0683 165.927 33.7457C165.806 33.4231 165.784 33.0708 165.863 32.7351C165.885 32.6705 165.886 32.6004 165.866 32.5353C165.846 32.4702 165.805 32.4134 165.751 32.3736C163.557 30.3134 162.088 27.5666 161.574 24.561C161.467 23.8018 161.398 23.0375 161.366 22.271C161.371 22.2038 161.354 22.1367 161.317 22.0809C161.28 22.0251 161.226 21.9839 161.163 21.9642C160.811 21.8336 160.515 21.5808 160.325 21.2496C160.136 20.9183 160.066 20.5296 160.127 20.1508C160.166 19.7832 160.325 19.4399 160.578 19.1765C160.831 18.913 161.163 18.7448 161.521 18.6989C161.756 18.6606 161.825 18.54 161.879 18.3373C162.205 17.1268 162.698 15.9702 163.342 14.9022L164.763 12.9847ZM164.053 15.346C163.482 16.295 163.037 17.3174 162.728 18.3866C162.68 18.5455 162.643 18.7099 162.611 18.8249C162.819 19.0605 162.995 19.2687 163.193 19.4659C163.259 19.5159 163.341 19.5375 163.422 19.5262C165.006 19.1977 166.615 19.0144 168.23 18.9783C168.338 18.9624 168.437 18.9058 168.507 18.8195C168.678 18.5281 168.931 18.2962 169.232 18.1536C169.532 18.011 169.868 17.9643 170.195 18.0196C170.265 18.0366 170.337 18.031 170.404 18.0035C170.47 17.976 170.526 17.928 170.564 17.8662C171.322 16.8082 172.193 15.8398 173.16 14.9789C173.211 14.9378 173.247 14.8811 173.265 14.817C173.282 14.753 173.279 14.685 173.256 14.6228C173.181 14.2941 173.16 13.949 173.106 13.5271C171.819 12.7436 170.438 12.1341 168.999 11.7137C168.886 11.9315 168.729 12.1225 168.54 12.2744C168.35 12.4263 168.132 12.5358 167.898 12.5957C167.661 12.6563 167.413 12.6631 167.172 12.6158C166.931 12.5686 166.704 12.4682 166.504 12.3218L165.361 13.5326L164.053 15.346ZM169.437 21.367C169.405 21.4437 169.373 21.5095 169.341 21.5752C168.494 23.3898 167.945 25.3353 167.717 27.3332C167.566 28.628 167.548 29.9354 167.663 31.234C167.663 31.3162 167.744 31.4477 167.802 31.4641C168.254 31.5663 168.651 31.8404 168.913 32.2311L169.052 32.1818C170.628 31.585 172.14 30.8251 173.566 29.9137C175.957 28.3865 178.08 26.4544 179.842 24.1995C179.88 24.1572 179.904 24.1038 179.91 24.0468C179.917 23.9897 179.906 23.932 179.879 23.8817C179.77 23.5592 179.7 23.2244 179.671 22.8846C179.68 22.7915 179.659 22.6979 179.61 22.6186C179.562 22.5392 179.489 22.4786 179.404 22.4463C177.42 21.4528 175.317 20.7343 173.149 20.3096C172.615 20.2055 172.107 20.1343 171.595 20.0521C171.178 21.1643 170.537 21.5588 169.437 21.367ZM182.838 29.322C182.838 29.9191 182.838 30.5218 182.774 31.1189C182.742 31.4751 182.774 31.7161 183.207 31.7928C184.462 30.6357 185.479 29.2331 186.198 27.6674C186.278 27.5031 186.198 27.4318 186.102 27.3387C185.058 26.274 183.928 25.3009 182.726 24.4296C182.518 24.2816 182.368 24.2378 182.192 24.4843C182.192 24.4843 182.192 24.5391 182.192 24.572C182.325 25.2678 182.47 25.9636 182.598 26.6594L182.838 29.322ZM181.775 26.7415C181.695 26.0608 181.566 25.387 181.391 24.7254C181.252 24.7254 181.172 24.7254 181.086 24.7254C180.996 24.7197 180.908 24.6993 180.824 24.6651C180.627 24.5556 180.525 24.6377 180.397 24.7966C177.589 28.3859 173.903 31.1462 169.715 32.7954C169.314 32.9543 169.015 33.1077 169.047 33.6008C169.051 33.639 169.051 33.6776 169.047 33.7158L169.325 33.8583C171.03 34.7086 172.901 35.1504 174.797 35.1504C176.693 35.1504 178.564 34.7086 180.269 33.8583C180.361 33.8361 180.44 33.7776 180.49 33.6955C180.54 33.6134 180.557 33.5144 180.536 33.42C180.495 33.0297 180.588 32.6371 180.799 32.3093C181.009 31.9815 181.324 31.7389 181.69 31.623L181.941 31.5353C181.967 30.8121 182 30.089 182.021 29.3713L181.775 26.7415ZM168.133 19.8494L163.449 20.3973C163.455 20.7876 163.331 21.1683 163.098 21.4769C162.865 21.7855 162.537 22.0037 162.167 22.0957C162.291 25.7879 163.799 29.2888 166.376 31.8695C166.846 31.5572 166.841 31.5572 166.804 31.1354C166.647 29.2204 166.773 27.2921 167.177 25.4157C167.495 23.9455 167.975 22.5172 168.609 21.1588C168.633 21.1171 168.648 21.0709 168.655 21.0229C168.661 20.975 168.658 20.9262 168.646 20.8794C168.523 20.5397 168.358 20.2329 168.15 19.822L168.133 19.8494ZM181.765 21.367C182.82 19.5784 183.651 17.6603 184.238 15.6583C184.239 15.6089 184.229 15.5598 184.209 15.515C184.189 15.4703 184.158 15.4311 184.12 15.4008C183.899 15.239 183.722 15.0225 183.606 14.7714C183.489 14.5204 183.436 14.2431 183.452 13.9654C183.504 13.6225 183.579 13.2838 183.677 12.9519L182.993 12.2999C182.8 12.4605 182.576 12.5756 182.335 12.6371C182.094 12.6987 181.843 12.7051 181.599 12.656C181.359 12.6056 181.131 12.5033 180.932 12.3559C180.734 12.2086 180.567 12.0195 180.445 11.8013C179.09 12.2107 177.789 12.7904 176.573 13.5271C176.498 13.6025 176.454 13.7044 176.45 13.812C176.441 14.0786 176.412 14.3441 176.364 14.6064C176.332 14.6855 176.328 14.7737 176.352 14.8558C176.376 14.9379 176.428 15.0086 176.498 15.0556C178.306 16.7005 179.786 18.6894 180.856 20.9123C180.995 21.2081 181.134 21.3889 181.471 21.3232C181.57 21.3262 181.669 21.3409 181.765 21.367ZM185.701 15.6199C185.609 15.6517 185.514 15.6738 185.418 15.6857C185.146 15.6857 185.049 15.8281 184.98 16.0747C184.857 16.513 184.708 16.9458 184.558 17.3731C184.027 18.8374 183.375 20.2524 182.608 21.6026C182.56 21.6848 182.523 21.8382 182.566 21.8875C182.742 22.1042 182.867 22.3601 182.93 22.635C182.993 22.9099 182.993 23.1961 182.929 23.4708L186.668 26.6155C187.291 24.819 187.527 22.9054 187.36 21.0063C187.193 19.1073 186.627 17.2678 185.701 15.6145V15.6199ZM171.141 18.5181C171.247 18.6671 171.342 18.8247 171.424 18.9893C171.488 19.1701 171.611 19.2084 171.771 19.2358C172.802 19.4276 173.838 19.5919 174.858 19.8385C176.603 20.2771 178.293 20.9186 179.895 21.7505C179.988 21.7889 180.091 21.7889 180.183 21.7505C180.206 21.7133 180.22 21.6713 180.225 21.6277C180.23 21.584 180.225 21.5398 180.21 21.4985C179.167 19.2616 177.691 17.2653 175.873 15.6309C175.829 15.6012 175.779 15.5827 175.727 15.5769C175.675 15.5712 175.623 15.5784 175.574 15.598C175.402 15.7086 175.207 15.7771 175.005 15.798C174.804 15.8189 174.6 15.7917 174.41 15.7186C173.875 15.4008 173.571 15.7186 173.25 16.0692L173.192 16.124C172.441 16.857 171.755 17.6563 171.141 18.5127V18.5181ZM180.269 10.4646C180.205 10.4262 180.103 10.3769 180.007 10.3331C178.325 9.55437 176.497 9.16309 174.651 9.18676C172.806 9.21042 170.987 9.64844 169.325 10.47C169.279 10.4958 169.239 10.5327 169.211 10.5776C169.182 10.6225 169.164 10.674 169.159 10.7275C169.173 10.7795 169.199 10.8273 169.234 10.8673C169.269 10.9073 169.313 10.9382 169.362 10.9576C169.896 11.1713 170.489 11.3302 171.034 11.5712C171.91 11.9602 172.764 12.3985 173.64 12.8204C173.93 12.5376 174.309 12.3714 174.708 12.3523C175.108 12.3332 175.5 12.4624 175.814 12.7163C175.873 12.7713 175.949 12.8019 176.028 12.8019C176.107 12.8019 176.183 12.7713 176.242 12.7163C177.365 12.0331 178.56 11.4817 179.804 11.0727C180.109 11.0124 180.376 10.9248 180.269 10.4646ZM185.925 14.0037C185.926 13.8345 185.878 13.6687 185.788 13.5274C185.697 13.3862 185.567 13.2758 185.415 13.2102C185.263 13.1447 185.095 13.127 184.933 13.1594C184.771 13.1917 184.622 13.2727 184.505 13.392C184.388 13.5113 184.308 13.6636 184.275 13.8295C184.243 13.9954 184.259 14.1676 184.322 14.3241C184.385 14.4805 184.492 14.6144 184.629 14.7085C184.766 14.8027 184.927 14.8529 185.092 14.8529C185.202 14.8551 185.311 14.8347 185.412 14.7929C185.514 14.7511 185.607 14.6887 185.684 14.6095C185.762 14.5303 185.823 14.4358 185.865 14.3317C185.906 14.2277 185.927 14.1161 185.925 14.0037ZM162.611 20.3863C162.614 20.274 162.594 20.1622 162.554 20.0578C162.513 19.9534 162.452 19.8586 162.375 19.7792C162.297 19.6997 162.205 19.6373 162.103 19.5956C162.001 19.554 161.892 19.5341 161.783 19.5372C161.56 19.5372 161.347 19.6278 161.19 19.7891C161.032 19.9504 160.944 20.1692 160.944 20.3973C160.944 20.6254 161.032 20.8442 161.19 21.0055C161.347 21.1668 161.56 21.2574 161.783 21.2574C161.894 21.2598 162.004 21.2387 162.107 21.1955C162.21 21.1523 162.303 21.0878 162.381 21.0062C162.459 20.9245 162.519 20.8273 162.558 20.7207C162.598 20.6141 162.616 20.5003 162.611 20.3863ZM182.747 10.9576C182.749 10.845 182.728 10.7332 182.687 10.6288C182.645 10.5245 182.584 10.4297 182.506 10.35C182.429 10.2704 182.336 10.2075 182.235 10.165C182.133 10.1226 182.024 10.1015 181.914 10.103C181.692 10.103 181.479 10.1926 181.321 10.3526C181.163 10.5126 181.073 10.73 181.07 10.9576C181.069 11.0703 181.089 11.182 181.131 11.2862C181.173 11.3903 181.235 11.4847 181.313 11.5635C181.392 11.6424 181.485 11.7042 181.587 11.745C181.69 11.7859 181.799 11.8051 181.909 11.8013C182.019 11.8084 182.13 11.7915 182.234 11.7518C182.338 11.7121 182.432 11.6504 182.511 11.5709C182.59 11.4914 182.652 11.3957 182.693 11.29C182.733 11.1844 182.752 11.0711 182.747 10.9576ZM182.138 23.0106C182.141 22.8982 182.121 22.7864 182.081 22.6818C182.04 22.5773 181.98 22.482 181.904 22.4014C181.827 22.3209 181.736 22.2568 181.635 22.2127C181.534 22.1687 181.425 22.1457 181.316 22.145C181.092 22.145 180.877 22.2362 180.719 22.3985C180.561 22.5608 180.472 22.781 180.472 23.0106C180.472 23.2402 180.561 23.4603 180.719 23.6227C180.877 23.785 181.092 23.8762 181.316 23.8762C181.426 23.8763 181.534 23.8537 181.636 23.81C181.737 23.7662 181.828 23.7021 181.905 23.6214C181.982 23.5407 182.042 23.4451 182.082 23.3402C182.122 23.2353 182.141 23.1232 182.138 23.0106ZM168.32 10.9576C168.323 10.845 168.304 10.733 168.263 10.6283C168.223 10.5237 168.162 10.4285 168.085 10.3486C168.007 10.2687 167.915 10.2058 167.813 10.1635C167.711 10.1213 167.602 10.1007 167.493 10.103C167.326 10.1008 167.163 10.1495 167.023 10.243C166.884 10.3364 166.775 10.4703 166.71 10.6276C166.645 10.7848 166.627 10.9584 166.659 11.1261C166.69 11.2938 166.77 11.4481 166.887 11.5693C167.004 11.6905 167.154 11.7731 167.318 11.8065C167.481 11.84 167.65 11.8228 167.804 11.7572C167.958 11.6916 168.089 11.5805 168.181 11.4381C168.273 11.2957 168.321 11.1284 168.32 10.9576ZM182.181 34.0774C182.291 34.0767 182.399 34.0539 182.5 34.0103C182.6 33.9666 182.692 33.9031 182.769 33.8232C182.846 33.7433 182.906 33.6487 182.948 33.5447C182.989 33.4408 183.01 33.3295 183.009 33.2173C183.009 32.992 182.922 32.7761 182.767 32.6168C182.611 32.4575 182.401 32.3681 182.181 32.3681C181.962 32.3681 181.751 32.4575 181.596 32.6168C181.44 32.7761 181.353 32.992 181.353 33.2173C181.35 33.3308 181.368 33.4439 181.408 33.5498C181.449 33.6557 181.509 33.7523 181.586 33.8336C181.664 33.915 181.756 33.9795 181.858 34.0232C181.961 34.067 182.07 34.0892 182.181 34.0884V34.0774ZM169.944 18.8797C169.779 18.8786 169.617 18.9281 169.479 19.0219C169.341 19.1156 169.233 19.2494 169.17 19.4061C169.106 19.5628 169.089 19.7354 169.122 19.9018C169.154 20.0683 169.234 20.221 169.352 20.3407C169.469 20.4603 169.618 20.5414 169.781 20.5735C169.943 20.6057 170.112 20.5875 170.264 20.5213C170.416 20.4551 170.546 20.3439 170.637 20.2018C170.727 20.0597 170.774 19.8931 170.772 19.7234C170.768 19.5 170.679 19.2871 170.525 19.1296C170.37 18.9721 170.162 18.8825 169.944 18.8797ZM168.342 33.168C168.342 32.9992 168.293 32.8341 168.202 32.6937C168.11 32.5533 167.981 32.4437 167.829 32.3789C167.677 32.314 167.509 32.2968 167.348 32.3293C167.186 32.3619 167.038 32.4427 166.921 32.5617C166.805 32.6807 166.725 32.8325 166.692 32.9979C166.659 33.1633 166.675 33.335 166.737 33.4912C166.799 33.6475 166.905 33.7814 167.042 33.8759C167.178 33.9705 167.339 34.0215 167.503 34.0226C167.721 34.0169 167.928 33.9246 168.081 33.765C168.233 33.6055 168.319 33.3914 168.32 33.168H168.342ZM175.622 14.064C175.626 13.9517 175.607 13.8398 175.567 13.7351C175.527 13.6305 175.467 13.5352 175.39 13.4553C175.313 13.3753 175.221 13.3122 175.119 13.27C175.018 13.2277 174.909 13.2071 174.799 13.2093C174.578 13.2122 174.366 13.3037 174.21 13.4644C174.053 13.6251 173.964 13.8422 173.961 14.0695C173.964 14.2957 174.053 14.5117 174.21 14.6706C174.367 14.8296 174.579 14.9187 174.799 14.9187C174.909 14.9218 175.018 14.9017 175.12 14.8597C175.222 14.8177 175.315 14.7547 175.392 14.6745C175.469 14.5944 175.529 14.4988 175.569 14.3938C175.608 14.2888 175.626 14.1765 175.622 14.064Z" fill="white"/>
<path d="M218.727 0V35.0303H212.318L211.517 33.1182C209.4 34.9417 206.717 35.9289 203.953 35.9014C196.251 35.9014 190.766 30.1598 190.766 22.161C190.766 14.1622 196.251 8.46447 203.953 8.46447C206.153 8.44961 208.313 9.06843 210.187 10.2505V0H218.727ZM210.715 22.161C210.763 21.3757 210.653 20.5888 210.392 19.8488C210.132 19.1087 209.726 18.4312 209.201 17.858C208.676 17.2847 208.041 16.8279 207.337 16.5156C206.633 16.2034 205.874 16.0423 205.107 16.0423C204.34 16.0423 203.581 16.2034 202.877 16.5156C202.173 16.8279 201.539 17.2847 201.013 17.858C200.488 18.4312 200.082 19.1087 199.822 19.8488C199.561 20.5888 199.451 21.3757 199.499 22.161C199.451 22.9463 199.561 23.7332 199.822 24.4733C200.082 25.2133 200.488 25.8908 201.013 26.4641C201.539 27.0373 202.173 27.4941 202.877 27.8064C203.581 28.1186 204.34 28.2797 205.107 28.2797C205.874 28.2797 206.633 28.1186 207.337 27.8064C208.041 27.4941 208.676 27.0373 209.201 26.4641C209.726 25.8908 210.132 25.2133 210.392 24.4733C210.653 23.7332 210.763 22.9463 210.715 22.161Z" fill="#7151A9"/>
<path d="M250 21.9143C249.995 22.6994 249.934 23.483 249.819 24.2592H231.188C231.755 27.2121 233.581 28.7352 236.311 28.7352C238.33 28.7352 240.018 27.8312 240.851 26.3246H249.44C247.677 32.1977 242.603 35.8683 236.305 35.8683C228.48 35.8683 222.68 30.0007 222.68 22.1389C222.68 14.2771 228.432 8.44238 236.305 8.44238C244.392 8.44238 249.995 14.3648 249.995 21.9088L250 21.9143ZM231.343 19.3503H241.492C240.733 16.7808 238.923 15.3893 236.316 15.3893C233.795 15.3947 232.043 16.7973 231.343 19.3558V19.3503Z" fill="#7151A9"/>
</g>
<defs>
<clipPath id="clip0_1230_140">
<rect width="250" height="36" fill="white"/>
</clipPath>
</defs>
</svg>
