<svg width="2155" height="1382" viewBox="0 0 2155 1382" fill="none" xmlns="http://www.w3.org/2000/svg">
<g clip-path="url(#clip0_1555_140)">
<path d="M0 164.059L29.9306 166.222C59.8611 168.386 119.722 172.712 179.583 170.549C239.444 168.386 299.306 159.732 359.167 164.059C419.028 168.386 478.889 185.693 538.75 192.183C598.611 198.673 658.472 194.346 718.333 185.693C778.194 177.039 838.056 164.059 897.917 157.569C957.778 151.078 1017.64 151.078 1077.5 151.078C1137.36 151.078 1197.22 151.078 1257.08 164.059C1316.94 177.039 1376.81 203 1436.67 203C1496.53 203 1556.39 177.039 1616.25 166.222C1676.11 155.405 1735.97 159.732 1795.83 153.242C1855.69 146.752 1915.56 129.444 1975.42 135.935C2035.28 142.425 2095.14 172.712 2125.07 187.856L2155 203V68.8693L2125.07 60.2157C2095.14 51.5621 2035.28 34.2549 1975.42 23.4379C1915.56 12.621 1855.69 8.29416 1795.83 10.4576C1735.97 12.621 1676.11 21.2746 1616.25 32.0915C1556.39 42.9085 1496.53 55.8889 1436.67 49.3987C1376.81 42.9085 1316.94 16.9478 1257.08 6.13076C1197.22 -4.68623 1137.36 -0.359429 1077.5 12.621C1017.64 25.6013 957.778 47.2353 897.917 62.3791C838.056 77.5229 778.194 86.1765 718.333 86.1765C658.472 86.1765 598.611 77.5229 538.75 73.1961C478.889 68.8693 419.028 68.8693 359.167 73.1961C299.306 77.5229 239.444 86.1765 179.583 81.8497C119.722 77.5229 59.8611 60.2157 29.9306 51.5621L0 42.9085V164.059Z" fill="#684B95"/>
<path d="M0 482.004L29.9306 469.079C59.8611 456.154 119.722 430.304 179.583 412.209C239.444 394.114 299.306 383.774 359.167 391.529C419.028 399.284 478.889 425.134 538.75 427.719C598.611 430.304 658.472 409.624 718.333 404.454C778.194 399.284 838.056 409.624 897.917 427.719C957.778 445.814 1017.64 471.664 1077.5 476.834C1137.36 482.004 1197.22 466.494 1257.08 461.324C1316.94 456.154 1376.81 461.324 1436.67 450.984C1496.53 440.644 1556.39 414.794 1616.25 396.699C1676.11 378.604 1735.97 368.264 1795.83 365.679C1855.69 363.094 1915.56 368.264 1975.42 383.774C2035.28 399.284 2095.14 425.134 2125.07 438.059L2155 450.984V197.654L2125.07 179.559C2095.14 161.464 2035.28 125.274 1975.42 117.519C1915.56 109.764 1855.69 130.444 1795.83 138.199C1735.97 145.954 1676.11 140.784 1616.25 153.709C1556.39 166.634 1496.53 197.654 1436.67 197.654C1376.81 197.654 1316.94 166.634 1257.08 151.124C1197.22 135.614 1137.36 135.614 1077.5 135.614C1017.64 135.614 957.778 135.614 897.917 143.369C838.056 151.124 778.194 166.634 718.333 176.974C658.472 187.314 598.611 192.484 538.75 184.729C478.889 176.974 419.028 156.294 359.167 151.124C299.306 145.954 239.444 156.294 179.583 158.879C119.722 161.464 59.8611 156.294 29.9306 153.709L0 151.124V482.004Z" fill="#5E4681"/>
<path d="M0 621.595L29.9306 613.84C59.8611 606.085 119.722 590.575 179.583 577.65C239.444 564.725 299.306 554.385 359.167 549.215C419.028 544.045 478.889 544.045 538.75 533.705C598.611 523.365 658.472 502.685 718.333 513.025C778.194 523.365 838.056 564.725 897.917 593.16C957.778 621.595 1017.64 637.105 1077.5 634.52C1137.36 631.935 1197.22 611.255 1257.08 608.67C1316.94 606.085 1376.81 621.595 1436.67 608.67C1496.53 595.745 1556.39 554.385 1616.25 531.12C1676.11 507.855 1735.97 502.685 1795.83 510.44C1855.69 518.195 1915.56 538.875 1975.42 546.63C2035.28 554.385 2095.14 549.215 2125.07 546.63L2155 544.045V445.815L2125.07 432.89C2095.14 419.965 2035.28 394.115 1975.42 378.605C1915.56 363.095 1855.69 357.925 1795.83 360.51C1735.97 363.095 1676.11 373.435 1616.25 391.53C1556.39 409.625 1496.53 435.475 1436.67 445.815C1376.81 456.155 1316.94 450.985 1257.08 456.155C1197.22 461.325 1137.36 476.835 1077.5 471.665C1017.64 466.495 957.778 440.645 897.917 422.55C838.056 404.455 778.194 394.115 718.333 399.285C658.472 404.455 598.611 425.135 538.75 422.55C478.889 419.965 419.028 394.115 359.167 386.36C299.306 378.605 239.444 388.945 179.583 407.04C119.722 425.135 59.8611 450.985 29.9306 463.91L0 476.835V621.595Z" fill="#54406D"/>
<path d="M0 962.815L29.9306 967.985C59.8611 973.155 119.722 983.495 179.583 973.155C239.444 962.815 299.306 931.795 359.167 916.285C419.028 900.775 478.889 900.775 538.75 916.285C598.611 931.795 658.472 962.815 718.333 955.06C778.194 947.305 838.056 900.775 897.917 921.455C957.778 942.135 1017.64 1030.02 1077.5 1066.21C1137.36 1102.4 1197.22 1086.89 1257.08 1084.31C1316.94 1081.72 1376.81 1092.06 1436.67 1055.87C1496.53 1019.68 1556.39 936.965 1616.25 926.625C1676.11 916.285 1735.97 978.325 1795.83 991.25C1855.69 1004.17 1915.56 967.985 1975.42 939.55C2035.28 911.115 2095.14 890.435 2125.07 880.095L2155 869.755V538.875L2125.07 541.46C2095.14 544.045 2035.28 549.215 1975.42 541.46C1915.56 533.705 1855.69 513.025 1795.83 505.27C1735.97 497.515 1676.11 502.685 1616.25 525.95C1556.39 549.215 1496.53 590.575 1436.67 603.5C1376.81 616.425 1316.94 600.915 1257.08 603.5C1197.22 606.085 1137.36 626.765 1077.5 629.35C1017.64 631.935 957.778 616.425 897.917 587.99C838.056 559.555 778.194 518.195 718.333 507.855C658.472 497.515 598.611 518.195 538.75 528.535C478.889 538.875 419.028 538.875 359.167 544.045C299.306 549.215 239.444 559.555 179.583 572.48C119.722 585.405 59.8611 600.915 29.9306 608.67L0 616.425V962.815Z" fill="#4A3B5B"/>
<path d="M0 1381.59H29.9306C59.8611 1381.59 119.722 1381.59 179.583 1381.59C239.444 1381.59 299.306 1381.59 359.167 1381.59C419.028 1381.59 478.889 1381.59 538.75 1381.59C598.611 1381.59 658.472 1381.59 718.333 1381.59C778.194 1381.59 838.056 1381.59 897.917 1381.59C957.778 1381.59 1017.64 1381.59 1077.5 1381.59C1137.36 1381.59 1197.22 1381.59 1257.08 1381.59C1316.94 1381.59 1376.81 1381.59 1436.67 1381.59C1496.53 1381.59 1556.39 1381.59 1616.25 1381.59C1676.11 1381.59 1735.97 1381.59 1795.83 1381.59C1855.69 1381.59 1915.56 1381.59 1975.42 1381.59C2035.28 1381.59 2095.14 1381.59 2125.07 1381.59H2155V864.586L2125.07 874.926C2095.14 885.266 2035.28 905.946 1975.42 934.381C1915.56 962.816 1855.69 999.006 1795.83 986.081C1735.97 973.156 1676.11 911.116 1616.25 921.456C1556.39 931.796 1496.53 1014.52 1436.67 1050.71C1376.81 1086.9 1316.94 1076.56 1257.08 1079.14C1197.22 1081.73 1137.36 1097.24 1077.5 1061.05C1017.64 1024.86 957.778 936.966 897.917 916.286C838.056 895.606 778.194 942.136 718.333 949.891C658.472 957.646 598.611 926.626 538.75 911.116C478.889 895.606 419.028 895.606 359.167 911.116C299.306 926.626 239.444 957.646 179.583 967.986C119.722 978.326 59.8611 967.986 29.9306 962.816L0 957.646V1381.59Z" fill="#3F3649"/>
</g>
<defs>
<clipPath id="clip0_1555_140">
<rect width="2155" height="1382" fill="white"/>
</clipPath>
</defs>
</svg>
