<svg id="visual" viewBox="0 0 900 600" width="900" height="600" xmlns="http://www.w3.org/2000/svg" xmlns:xlink="http://www.w3.org/1999/xlink" version="1.1"><path d="M0 163L12.5 167C25 171 50 179 75 173C100 167 125 147 150 142C175 137 200 147 225 152C250 157 275 157 300 149C325 141 350 125 375 129C400 133 425 157 450 160C475 163 500 145 525 148C550 151 575 175 600 168C625 161 650 123 675 121C700 119 725 153 750 168C775 183 800 179 825 169C850 159 875 143 887.5 135L900 127L900 0L887.5 0C875 0 850 0 825 0C800 0 775 0 750 0C725 0 700 0 675 0C650 0 625 0 600 0C575 0 550 0 525 0C500 0 475 0 450 0C425 0 400 0 375 0C350 0 325 0 300 0C275 0 250 0 225 0C200 0 175 0 150 0C125 0 100 0 75 0C50 0 25 0 12.5 0L0 0Z" fill="#dbd3e9"></path><path d="M0 235L12.5 233C25 231 50 227 75 216C100 205 125 187 150 182C175 177 200 185 225 190C250 195 275 197 300 194C325 191 350 183 375 190C400 197 425 219 450 224C475 229 500 217 525 216C550 215 575 225 600 218C625 211 650 187 675 187C700 187 725 211 750 225C775 239 800 243 825 233C850 223 875 199 887.5 187L900 175L900 125L887.5 133C875 141 850 157 825 167C800 177 775 181 750 166C725 151 700 117 675 119C650 121 625 159 600 166C575 173 550 149 525 146C500 143 475 161 450 158C425 155 400 131 375 127C350 123 325 139 300 147C275 155 250 155 225 150C200 145 175 135 150 140C125 145 100 165 75 171C50 177 25 169 12.5 165L0 161Z" fill="#c6b8dd"></path><path d="M0 307L12.5 303C25 299 50 291 75 287C100 283 125 283 150 277C175 271 200 259 225 256C250 253 275 259 300 258C325 257 350 249 375 257C400 265 425 289 450 295C475 301 500 289 525 286C550 283 575 289 600 285C625 281 650 267 675 274C700 281 725 309 750 324C775 339 800 341 825 322C850 303 875 263 887.5 243L900 223L900 173L887.5 185C875 197 850 221 825 231C800 241 775 237 750 223C725 209 700 185 675 185C650 185 625 209 600 216C575 223 550 213 525 214C500 215 475 227 450 222C425 217 400 195 375 188C350 181 325 189 300 192C275 195 250 193 225 188C200 183 175 175 150 180C125 185 100 203 75 214C50 225 25 229 12.5 231L0 233Z" fill="#b19ed0"></path><path d="M0 445L12.5 440C25 435 50 425 75 423C100 421 125 427 150 422C175 417 200 401 225 399C250 397 275 409 300 414C325 419 350 417 375 416C400 415 425 415 450 427C475 439 500 463 525 472C550 481 575 475 600 471C625 467 650 465 675 460C700 455 725 447 750 444C775 441 800 443 825 441C850 439 875 433 887.5 430L900 427L900 221L887.5 241C875 261 850 301 825 320C800 339 775 337 750 322C725 307 700 279 675 272C650 265 625 279 600 283C575 287 550 281 525 284C500 287 475 299 450 293C425 287 400 263 375 255C350 247 325 255 300 256C275 257 250 251 225 254C200 257 175 269 150 275C125 281 100 281 75 285C50 289 25 297 12.5 301L0 305Z" fill="#9b84c4"></path><path d="M0 517L12.5 518C25 519 50 521 75 529C100 537 125 551 150 552C175 553 200 541 225 538C250 535 275 541 300 539C325 537 350 527 375 527C400 527 425 537 450 541C475 545 500 543 525 544C550 545 575 549 600 553C625 557 650 561 675 555C700 549 725 533 750 526C775 519 800 521 825 520C850 519 875 515 887.5 513L900 511L900 425L887.5 428C875 431 850 437 825 439C800 441 775 439 750 442C725 445 700 453 675 458C650 463 625 465 600 469C575 473 550 479 525 470C500 461 475 437 450 425C425 413 400 413 375 414C350 415 325 417 300 412C275 407 250 395 225 397C200 399 175 415 150 420C125 425 100 419 75 421C50 423 25 433 12.5 438L0 443Z" fill="#866ab6"></path><path d="M0 601L12.5 601C25 601 50 601 75 601C100 601 125 601 150 601C175 601 200 601 225 601C250 601 275 601 300 601C325 601 350 601 375 601C400 601 425 601 450 601C475 601 500 601 525 601C550 601 575 601 600 601C625 601 650 601 675 601C700 601 725 601 750 601C775 601 800 601 825 601C850 601 875 601 887.5 601L900 601L900 509L887.5 511C875 513 850 517 825 518C800 519 775 517 750 524C725 531 700 547 675 553C650 559 625 555 600 551C575 547 550 543 525 542C500 541 475 543 450 539C425 535 400 525 375 525C350 525 325 535 300 537C275 539 250 533 225 536C200 539 175 551 150 550C125 549 100 535 75 527C50 519 25 517 12.5 516L0 515Z" fill="#7151a9"></path></svg>