<svg width="1440" height="1776" viewBox="0 0 1440 1776" fill="none" xmlns="http://www.w3.org/2000/svg">
<g clip-path="url(#clip0_1459_140)">
<path d="M-49 695.601L-10.0139 689.681C28.9722 683.761 106.944 671.921 184.917 639.361C262.889 606.801 340.861 553.521 418.833 538.721C496.806 523.921 574.778 547.601 652.75 562.401C730.722 577.201 808.694 583.121 886.667 574.241C964.639 565.361 1042.61 541.681 1120.58 562.401C1198.56 583.121 1276.53 648.241 1354.5 663.041C1432.47 677.841 1510.44 642.321 1588.42 639.361C1666.39 636.401 1744.36 666.001 1822.33 645.281C1900.31 624.561 1978.28 553.521 2056.25 553.521C2134.22 553.521 2212.19 624.561 2290.17 666.001C2368.14 707.441 2446.11 719.281 2524.08 689.681C2602.06 660.081 2680.03 589.041 2719.01 553.521L2758 518.001V370.001L2719.01 393.681C2680.03 417.361 2602.06 464.721 2524.08 494.321C2446.11 523.921 2368.14 535.761 2290.17 491.361C2212.19 446.961 2134.22 346.321 2056.25 352.241C1978.28 358.161 1900.31 470.641 1822.33 491.361C1744.36 512.081 1666.39 441.041 1588.42 432.161C1510.44 423.281 1432.47 476.561 1354.5 467.681C1276.53 458.801 1198.56 387.761 1120.58 375.921C1042.61 364.081 964.639 411.441 886.667 435.121C808.694 458.801 730.722 458.801 652.75 444.001C574.778 429.201 496.806 399.601 418.833 414.401C340.861 429.201 262.889 488.401 184.917 506.161C106.944 523.921 28.9722 500.241 -10.0139 488.401L-49 476.561V695.601Z" fill="#C6B8DD"/>
<path d="M-49 908.72L-10.0139 896.88C28.9722 885.04 106.944 861.36 184.917 849.52C262.889 837.68 340.861 837.68 418.833 819.92C496.806 802.16 574.778 766.64 652.75 757.76C730.722 748.88 808.694 766.64 886.667 763.68C964.639 760.72 1042.61 737.04 1120.58 760.72C1198.56 784.4 1276.53 855.44 1354.5 873.2C1432.47 890.96 1510.44 855.44 1588.42 846.56C1666.39 837.68 1744.36 855.44 1822.33 843.6C1900.31 831.76 1978.28 790.32 2056.25 811.04C2134.22 831.76 2212.19 914.64 2290.17 959.04C2368.14 1003.44 2446.11 1009.36 2524.08 953.12C2602.06 896.88 2680.03 778.48 2719.01 719.28L2758 660.08V512.08L2719.01 547.6C2680.03 583.12 2602.06 654.16 2524.08 683.76C2446.11 713.36 2368.14 701.52 2290.17 660.08C2212.19 618.64 2134.22 547.6 2056.25 547.6C1978.28 547.6 1900.31 618.64 1822.33 639.36C1744.36 660.08 1666.39 630.48 1588.42 633.44C1510.44 636.4 1432.47 671.92 1354.5 657.12C1276.53 642.32 1198.56 577.2 1120.58 556.48C1042.61 535.76 964.639 559.44 886.667 568.32C808.694 577.2 730.722 571.28 652.75 556.48C574.778 541.68 496.806 518 418.833 532.8C340.861 547.6 262.889 600.88 184.917 633.44C106.944 666 28.9722 677.84 -10.0139 683.76L-49 689.68V908.72Z" fill="#B19ED0"/>
<path d="M-49 1317.2L-10.0139 1302.4C28.9722 1287.6 106.944 1258 184.917 1252.08C262.889 1246.16 340.861 1263.92 418.833 1249.12C496.806 1234.32 574.778 1186.96 652.75 1181.04C730.722 1175.12 808.694 1210.64 886.667 1225.44C964.639 1240.24 1042.61 1234.32 1120.58 1231.36C1198.56 1228.4 1276.53 1228.4 1354.5 1263.92C1432.47 1299.44 1510.44 1370.48 1588.42 1397.12C1666.39 1423.76 1744.36 1406 1822.33 1394.16C1900.31 1382.32 1978.28 1376.4 2056.25 1361.6C2134.22 1346.8 2212.19 1323.12 2290.17 1314.24C2368.14 1305.36 2446.11 1311.28 2524.08 1305.36C2602.06 1299.44 2680.03 1281.68 2719.01 1272.8L2758 1263.92V654.16L2719.01 713.36C2680.03 772.56 2602.06 890.96 2524.08 947.2C2446.11 1003.44 2368.14 997.52 2290.17 953.12C2212.19 908.72 2134.22 825.84 2056.25 805.12C1978.28 784.4 1900.31 825.84 1822.33 837.68C1744.36 849.52 1666.39 831.76 1588.42 840.64C1510.44 849.52 1432.47 885.04 1354.5 867.28C1276.53 849.52 1198.56 778.48 1120.58 754.8C1042.61 731.12 964.639 754.8 886.667 757.76C808.694 760.72 730.722 742.96 652.75 751.84C574.778 760.72 496.806 796.24 418.833 814C340.861 831.76 262.889 831.76 184.917 843.6C106.944 855.44 28.9722 879.12 -10.0139 890.96L-49 902.8V1317.2Z" fill="#9B84C4"/>
<path d="M-49 1530.32L-10.0139 1533.28C28.9722 1536.24 106.944 1542.16 184.917 1565.84C262.889 1589.52 340.861 1630.96 418.833 1633.92C496.806 1636.88 574.778 1601.36 652.75 1592.48C730.722 1583.6 808.694 1601.36 886.667 1595.44C964.639 1589.52 1042.61 1559.92 1120.58 1559.92C1198.56 1559.92 1276.53 1589.52 1354.5 1601.36C1432.47 1613.2 1510.44 1607.28 1588.42 1610.24C1666.39 1613.2 1744.36 1625.04 1822.33 1636.88C1900.31 1648.72 1978.28 1660.56 2056.25 1642.8C2134.22 1625.04 2212.19 1577.68 2290.17 1556.96C2368.14 1536.24 2446.11 1542.16 2524.08 1539.2C2602.06 1536.24 2680.03 1524.4 2719.01 1518.48L2758 1512.56V1258L2719.01 1266.88C2680.03 1275.76 2602.06 1293.52 2524.08 1299.44C2446.11 1305.36 2368.14 1299.44 2290.17 1308.32C2212.19 1317.2 2134.22 1340.88 2056.25 1355.68C1978.28 1370.48 1900.31 1376.4 1822.33 1388.24C1744.36 1400.08 1666.39 1417.84 1588.42 1391.2C1510.44 1364.56 1432.47 1293.52 1354.5 1258C1276.53 1222.48 1198.56 1222.48 1120.58 1225.44C1042.61 1228.4 964.639 1234.32 886.667 1219.52C808.694 1204.72 730.722 1169.2 652.75 1175.12C574.778 1181.04 496.806 1228.4 418.833 1243.2C340.861 1258 262.889 1240.24 184.917 1246.16C106.944 1252.08 28.9722 1281.68 -10.0139 1296.48L-49 1311.28V1530.32Z" fill="#866AB6"/>
<path d="M-49 1778.96H-10.0139C28.9722 1778.96 106.944 1778.96 184.917 1778.96C262.889 1778.96 340.861 1778.96 418.833 1778.96C496.806 1778.96 574.778 1778.96 652.75 1778.96C730.722 1778.96 808.694 1778.96 886.667 1778.96C964.639 1778.96 1042.61 1778.96 1120.58 1778.96C1198.56 1778.96 1276.53 1778.96 1354.5 1778.96C1432.47 1778.96 1510.44 1778.96 1588.42 1778.96C1666.39 1778.96 1744.36 1778.96 1822.33 1778.96C1900.31 1778.96 1978.28 1778.96 2056.25 1778.96C2134.22 1778.96 2212.19 1778.96 2290.17 1778.96C2368.14 1778.96 2446.11 1778.96 2524.08 1778.96C2602.06 1778.96 2680.03 1778.96 2719.01 1778.96H2758V1506.64L2719.01 1512.56C2680.03 1518.48 2602.06 1530.32 2524.08 1533.28C2446.11 1536.24 2368.14 1530.32 2290.17 1551.04C2212.19 1571.76 2134.22 1619.12 2056.25 1636.88C1978.28 1654.64 1900.31 1642.8 1822.33 1630.96C1744.36 1619.12 1666.39 1607.28 1588.42 1604.32C1510.44 1601.36 1432.47 1607.28 1354.5 1595.44C1276.53 1583.6 1198.56 1554 1120.58 1554C1042.61 1554 964.639 1583.6 886.667 1589.52C808.694 1595.44 730.722 1577.68 652.75 1586.56C574.778 1595.44 496.806 1630.96 418.833 1628C340.861 1625.04 262.889 1583.6 184.917 1559.92C106.944 1536.24 28.9722 1530.32 -10.0139 1527.36L-49 1524.4V1778.96Z" fill="#7151A9"/>
</g>
<defs>
<clipPath id="clip0_1459_140">
<rect width="2807" height="1776" fill="white" transform="translate(-49)"/>
</clipPath>
</defs>
</svg>
