<svg width="1527" height="412" viewBox="0 0 1527 412" fill="none" xmlns="http://www.w3.org/2000/svg">
<mask id="mask0_1545_141" style="mask-type:alpha" maskUnits="userSpaceOnUse" x="0" y="0" width="1527" height="412">
<rect width="1527" height="412" fill="#D9D9D9"/>
</mask>
<g mask="url(#mask0_1545_141)">
<path d="M-224 40.282L-171.898 56.946C-119.797 73.3786 -15.5933 106.706 88.1253 106.244C192.086 105.781 295.32 71.9898 399.281 73.3785C503 74.9986 607.203 112.03 710.922 104.392C814.883 96.523 918.117 44.2166 1022.08 21.0722C1125.8 -2.07218 1230 3.94537 1333.72 22.2294C1437.68 40.2821 1540.91 70.3698 1644.87 94.6714C1748.59 118.973 1852.8 137.489 1904.9 146.746L1957 156.004V524H1904.9C1852.8 524 1748.59 524 1644.87 524C1540.91 524 1437.68 524 1333.72 524C1230 524 1125.8 524 1022.08 524C918.117 524 814.883 524 710.922 524C607.203 524 503 524 399.281 524C295.32 524 192.086 524 88.1253 524C-15.5933 524 -119.797 524 -171.898 524H-224V40.282Z" fill="#7151A9"/>
<path d="M-208 182.928L-166.553 187.741C-125.106 192.554 -42.2111 202.18 40.2978 191.591C122.999 181.002 205.123 150.198 287.824 137.684C370.333 125.169 453.228 130.945 535.737 134.218C618.438 137.299 700.562 138.069 783.263 160.402C865.772 182.928 948.667 227.209 1031.18 232.407C1113.88 237.413 1196 203.528 1278.7 182.35C1361.21 161.172 1444.11 152.701 1485.55 148.658L1527 144.422V516H1485.55C1444.11 516 1361.21 516 1278.7 516C1196 516 1113.88 516 1031.18 516C948.667 516 865.772 516 783.263 516C700.562 516 618.438 516 535.737 516C453.228 516 370.333 516 287.824 516C205.123 516 122.999 516 40.2978 516C-42.2111 516 -125.106 516 -166.553 516H-208V182.928Z" fill="#654A90"/>
<path d="M-241 216.671L-199.553 223.012C-158.106 229.544 -75.2111 242.226 7.29778 233.387C89.9995 224.357 172.123 193.615 254.824 192.078C337.333 190.348 420.228 218.016 502.737 221.859C585.438 225.702 667.562 205.719 750.263 200.34C832.772 194.96 915.667 203.798 998.176 211.484C1080.88 219.169 1163 225.702 1245.7 234.348C1328.21 242.994 1411.11 253.754 1452.55 259.326L1494 264.706V453H1452.55C1411.11 453 1328.21 453 1245.7 453C1163 453 1080.88 453 998.176 453C915.667 453 832.772 453 750.263 453C667.562 453 585.438 453 502.737 453C420.228 453 337.333 453 254.824 453C172.123 453 89.9995 453 7.29778 453C-75.2111 453 -158.106 453 -199.553 453H-241V216.671Z" fill="#594377"/>
<path d="M-253.5 251.072L-201.398 249.86C-149.297 248.649 -45.0933 246.225 58.6253 245.498C162.586 244.529 265.82 245.498 369.781 248.164C473.5 251.072 577.703 255.919 681.422 261.492C785.383 267.308 888.617 273.609 992.578 272.882C1096.3 272.155 1200.5 263.916 1304.22 263.916C1408.18 263.916 1511.41 272.155 1615.37 283.302C1719.09 294.692 1823.3 309.232 1875.4 316.502L1927.5 323.772V474.019H1875.4C1823.3 474.019 1719.09 474.019 1615.37 474.019C1511.41 474.019 1408.18 474.019 1304.22 474.019C1200.5 474.019 1096.3 474.019 992.578 474.019C888.617 474.019 785.383 474.019 681.422 474.019C577.703 474.019 473.5 474.019 369.781 474.019C265.82 474.019 162.586 474.019 58.6253 474.019C-45.0933 474.019 -149.297 474.019 -201.398 474.019H-253.5V251.072Z" fill="#4C3D60"/>
<path d="M-254 250.387L-201.898 252.81C-149.797 255.233 -45.5933 260.08 58.1254 261.292C162.086 262.503 265.32 260.08 369.281 271.712C473 283.586 577.203 309.274 680.922 313.393C784.883 317.513 888.117 299.58 992.078 287.464C1095.8 275.347 1200 269.046 1303.72 267.35C1407.68 265.654 1510.91 269.046 1614.87 263.715C1718.59 258.384 1822.8 244.813 1874.9 237.785L1927 231V415.173H1874.9C1822.8 415.173 1718.59 415.173 1614.87 415.173C1510.91 415.173 1407.68 415.173 1303.72 415.173C1200 415.173 1095.8 415.173 992.078 415.173C888.117 415.173 784.883 415.173 680.922 415.173C577.203 415.173 473 415.173 369.281 415.173C265.32 415.173 162.086 415.173 58.1254 415.173C-45.5933 415.173 -149.797 415.173 -201.898 415.173H-254V250.387Z" fill="#3F3649"/>
</g>
</svg>
